HIERARCHY
ROOT Hips
{
  OFFSET -17.0351 91.8461 -31.9157
  CHANNELS 6 Xposition Yposition Zposition Zrotation Xrotation Yrotation
  JOINT RightUpLeg
  {
    OFFSET -8.9458 -8.66707 0.101652
    CHANNELS 3 Zrotation Xrotation Yrotation
    JOINT RightLeg
    {
      OFFSET 0 -44.4227 1.3727
      CHANNELS 3 Zrotation Xrotation Yrotation
      JOINT RightFoot
      {
        OFFSET 0.253549 -42.0924 -1.46059
        CHANNELS 3 Zrotation Xrotation Yrotation
        JOINT RightToes
        {
          OFFSET 0.04 -4.41509 8.4991
          CHANNELS 3 Zrotation Xrotation Yrotation
          End Site
          {
            OFFSET -0.08 -0.137448 9.77979
          }
        }
      }
    }
  }
  JOINT Spine
  {
    OFFSET 0 11.8905 0
    CHANNELS 3 Zrotation Xrotation Yrotation
    JOINT Spine1
    {
      OFFSET 0 25.6574 0.127663
      CHANNELS 3 Zrotation Xrotation Yrotation
      JOINT HEad
      {
        OFFSET 0 8.73416 0.011341
        CHANNELS 3 Zrotation Xrotation Yrotation
        End Site
        {
          OFFSET -0.29 12.7742 2.51395
        }
      }
      JOINT LeftShoulder1
      {
        OFFSET 8.99 -0.362252 -0.22
        CHANNELS 3 Zrotation Xrotation Yrotation
        JOINT LeftArm
        {
          OFFSET 10.2827 -0.00338 0.322123
          CHANNELS 3 Zrotation Xrotation Yrotation
          JOINT LeftForeArm
          {
            OFFSET 32.7669 0.099144 -1.42434
            CHANNELS 3 Zrotation Xrotation Yrotation
            JOINT LeftHand
            {
              OFFSET 27.5643 0.085362 1.02216
              CHANNELS 3 Zrotation Xrotation Yrotation
              End Site
              {
                OFFSET 16.7443 -0.6 1.50291
              }
            }
          }
        }
      }
      JOINT RightShoulder
      {
        OFFSET -8.99 -0.362252 -0.22
        CHANNELS 3 Zrotation Xrotation Yrotation
        JOINT RightArm
        {
          OFFSET -10.2827 -0.00338 0.322123
          CHANNELS 3 Zrotation Xrotation Yrotation
          JOINT RightForeArm
          {
            OFFSET -32.8971 0.099144 -1.42434
            CHANNELS 3 Zrotation Xrotation Yrotation
            JOINT RightHand
            {
              OFFSET -27.4921 0.085362 1.02216
              CHANNELS 3 Zrotation Xrotation Yrotation
              End Site
              {
                OFFSET -16.6312 -0.6 1.50291
              }
            }
          }
        }
      }
    }
  }
  JOINT LeftUpLeg
  {
    OFFSET 8.9458 -8.66707 0.101652
    CHANNELS 3 Zrotation Xrotation Yrotation
    JOINT LeftLeg
    {
      OFFSET 0 -44.4227 1.3727
      CHANNELS 3 Zrotation Xrotation Yrotation
      JOINT LeftFoot
      {
        OFFSET -0.253549 -42.0924 -1.46059
        CHANNELS 3 Zrotation Xrotation Yrotation
        JOINT LeftToes
        {
          OFFSET -0.04 -4.41509 8.4991
          CHANNELS 3 Zrotation Xrotation Yrotation
          End Site
          {
            OFFSET 0.08 -0.047448 9.77979
          }
        }
      }
    }
  }
}
MOTION
Frames:	12
Frame Time:	0.0166667
-21.2212 93.875 -44.083 0.503613 -3.01716 67.5133 -19.2904 -18.8221 -1.96627 5.62619 29.6251 -2.36062 7.1623 15.8851 -1.48452 -14.97 -41.7188 -5.3582 2.08539 5.8033 -3.46671 -1.42316 11.3806 -6.22869 13.6539 -3.25261 -21.9086 -3.18055e-015 -4.77083e-015 -0 -73.9589 2.64397 -52.505 -14.7903 40.405 -110.045 6.54677 9.62745 -1.04006 21.4536 -1.82318 -10.1355 62.3738 -42.9718 52.7595 -46.493 7.58778 135.446 20.4811 1.69898 -46.3218 24.1436 -8.55079 -10.3309 -18.6739 33.4421 18.1689 -2.87099 27.2937 0.694614 43.3767 -52.2371 29.6086 
-21.3069 93.9246 -43.5015 0.554371 -3.58578 68.1487 -18.2195 -18.874 -4.2861 3.83088 31.9399 0.773564 8.36156 8.19263 -1.22276 -10.2729 -29.0966 -3.94295 2.93636 6.01222 -3.32526 -1.16719 11.7693 -5.85104 14.3782 -3.29161 -22.6568 7.95139e-016 -1.98785e-015 -0 -73.9378 2.84309 -53.4865 -14.5621 40.2681 -110.018 6.54677 9.62745 -1.04006 20.5682 -1.53286 -9.15928 65.1259 -44.8525 57.1604 -46.0142 12.1013 131.728 17.6262 2.98819 -45.4816 25.0677 -10.3009 -9.24373 -20.314 35.9859 20.7785 -4.35916 30.6155 1.2575 44.7547 -54.3967 29.1566 
-21.4961 93.8324 -42.8381 1.22472 -3.51475 67.742 -18.5766 -18.3468 -1.86879 5.94748 32.0904 -1.39721 8.08498 7.58213 -1.14569 -10.734 -30.8134 -3.8336 2.71934 6.16057 -2.94691 -1.54733 12.0761 -5.03831 14.7827 -3.95748 -23.3204 7.95139e-016 2.78299e-015 -6.36111e-015 -73.7789 2.93696 -54.2033 -14.4633 40.0875 -110.07 6.54677 9.62745 -1.04006 19.6931 -1.19402 -7.88459 68.3966 -47.0798 60.5041 -41.8324 17.4645 128.622 13.4983 4.90857 -43.0908 24.4783 -11.6144 -6.99616 -21.1849 39.5709 15.8877 -8.91401 27.4938 2.55475 44.4535 -55.2605 27.8606 
-21.6539 93.6927 -42.0699 1.94964 -3.25726 67.2226 -18.8272 -17.9229 0.0555338 6.75565 31.5208 -2.49257 8.85374 13.011 -1.62941 -14.3667 -42.5519 -3.97829 2.03368 6.35049 -2.6845 -2.27385 12.4964 -4.51433 15.3606 -4.05088 -23.5215 2.38542e-015 -1.98785e-015 3.18055e-015 -73.8725 2.76306 -54.5782 -14.583 40.4105 -110.163 6.54677 9.62745 -1.04006 19.4431 -1.02987 -7.19222 72.0044 -48.3522 62.8496 -35.265 22.7136 125.892 6.94237 7.53563 -38.907 23.3468 -12.2401 -3.92401 -20.4508 41.6708 7.07377 -13.5217 24.1571 3.59731 43.2628 -56.551 24.9709 
-21.5766 93.5656 -41.4758 2.20417 -3.69474 67.7189 -19.1706 -18.448 0.840385 8.98504 34.0527 -3.33411 9.71892 9.65127 -1.52427 -12.2554 -37.3244 -3.07718 2.71071 6.66665 -2.97439 -2.37342 13.129 -4.95874 16.4213 -4.12607 -23.0687 3.18055e-015 -1.19271e-015 3.18055e-015 -74.1068 2.86252 -55.1405 -14.6923 40.6475 -110.053 6.54677 9.62745 -1.04006 19.8532 -1.14286 -7.61244 74.7905 -48.25 63.7235 -28.841 26.6818 124.543 -0.787064 9.91491 -33.3988 23.1708 -12.4892 -3.8948 -21.8808 40.7531 2.89412 -18.6993 21.3833 4.61316 41.8129 -55.4964 24.0912 
-21.5314 93.6689 -40.8335 1.92858 -4.22555 68.1537 -19.3284 -19.6683 1.64911 11.6007 36.2963 -4.19625 11.1952 8.18261 -1.61501 -10.8331 -32.931 -2.85034 3.01574 6.92251 -3.21989 -2.16637 13.6683 -5.46921 17.9482 -5.00559 -22.609 -2.38542e-015 1.19271e-015 3.18055e-015 -74.2297 2.88896 -55.6387 -14.7708 40.9258 -110.386 6.54677 9.62745 -1.04006 20.8811 -1.47867 -8.83228 76.3142 -47.4799 62.7997 -24.9252 28.7513 126.488 -6.71504 11.1792 -28.8235 23.0598 -10.9683 -3.81195 -20.3393 36.3425 12.2045 -19.5928 31.9272 6.62929 59.7012 -64.2942 37.2424 
-21.299 94.1703 -39.9178 2.18954 -4.24716 68.9199 -20.4187 -20.066 2.01193 14.0014 37.3916 -4.80674 14.3985 10.9924 -2.39455 -10.8847 -34.2013 -2.27292 2.36263 7.19383 -3.65026 -1.71958 14.2357 -6.47372 18.3339 -5.27114 -21.5307 -2.38542e-015 4.37326e-015 -0 -74.8326 2.7826 -55.6601 -14.8872 41.2665 -110.745 6.54677 9.62745 -1.04006 21.5785 -1.77643 -9.89786 76.0741 -46.8993 60.0312 -23.8947 28.7602 131.963 -8.6066 11.5018 -27.6654 22.1514 -10.9867 -4.18431 -20.3566 37.8018 13.183 -10.5355 22.6342 2.63038 42.2383 -55.815 24.3434 
-21.1013 94.2927 -39.2152 1.80023 -4.76374 69.0162 -20.1659 -21.8371 1.45186 13.6642 39.5515 -2.03793 18.6013 15.5902 -3.80555 -11.3123 -39.1388 -0.584903 2.73906 7.25603 -3.92303 -0.984253 14.3107 -7.05038 17.4818 -5.35148 -20.9244 -2.38542e-015 -7.95139e-016 3.18055e-015 -75.5862 2.47112 -55.1654 -15.1279 41.5737 -111.109 6.54677 9.62745 -1.04006 22.3692 -2.08816 -10.9301 73.6963 -45.9905 55.6991 -24.7694 26.0339 139.301 -5.69911 11.0395 -30.5521 21.7563 -8.89116 -6.19692 -17.695 34.4669 13.9218 -9.13529 23.1759 2.29953 44.5682 -55.5067 27.7579 
-20.9336 94.2692 -38.4656 1.58448 -5.07425 69.0048 -20.4127 -23.4969 1.70583 14.5286 41.5285 -0.195465 20.8553 19.4378 -4.95303 -13.6752 -43.9521 -2.21649 3.45872 7.1395 -4.32974 -0.195844 13.9966 -7.83807 15.6717 -4.78439 -19.9344 -1.59028e-015 -3.97569e-016 -3.18055e-015 -76.713 1.78268 -54.2185 -15.071 41.505 -111.546 6.54677 9.62745 -1.04006 22.3969 -2.0441 -10.7407 69.4445 -45.1008 50.2169 -26.2723 20.4832 145.986 1.36934 9.3133 -35.9854 21.5074 -6.47322 -8.40462 -15.2474 30.8853 11.5737 -8.39988 24.3773 2.1831 50.6134 -56.3342 34.6029 
-20.7502 94.4389 -37.4491 1.21189 -5.07533 69.1593 -20.418 -24.3663 0.952985 13.1921 42.4581 1.22792 20.6724 17.1035 -4.49955 -12.0601 -42.7714 -0.167195 3.346 6.89659 -4.46546 0.461644 13.5027 -8.2531 13.7654 -4.72429 -19.3865 -7.95139e-016 7.95139e-015 3.18055e-015 -77.3764 1.5717 -53.9195 -15.1068 41.5287 -111.563 6.54677 9.62745 -1.04006 22.4148 -2.16003 -11.2073 64.9514 -43.1579 46.0747 -28.0341 13.4871 149.649 9.54382 6.53493 -40.851 22.0685 -5.69973 -11.2293 -15.6714 29.214 11.5553 -8.80175 19.5895 1.95408 42.5185 -53.1764 27.4439 
-20.632 94.5575 -36.5123 0.830945 -4.63376 69.8728 -21.203 -24.7991 -0.369891 11.3951 42.3481 2.28372 19.1628 11.6979 -3.29531 -12.2019 -36.5173 -3.39841 3.44761 6.59983 -4.58222 0.725088 12.9096 -8.57057 12.7287 -5.13394 -19.0692 -1.59028e-015 -5.56597e-015 -3.18055e-015 -77.3333 1.68439 -54.1798 -14.9981 40.9436 -111.351 6.54677 9.62745 -1.04006 22.2799 -2.20111 -11.4238 62.0409 -42.3911 44.1996 -30.0605 8.54341 150.104 15.725 4.01749 -43.6684 22.5657 -5.86533 -10.1008 -15.6676 28.5458 10.779 -7.38619 19.4443 1.60902 40.7304 -51.3743 26.8954 
-20.5639 94.6208 -35.6935 0.404455 -4.00888 71.4954 -23.2586 -23.7965 0.0625643 13.2601 39.0317 -1.77092 15.0191 6.82399 -1.97961 -10.7654 -29.0925 -4.8916 3.29678 6.33422 -4.81842 0.650581 12.4396 -9.10412 12.6636 -5.76313 -19.778 1.59028e-015 1.98785e-015 -3.18055e-015 -77.0514 1.95729 -54.706 -15.0655 40.8052 -111.057 6.54677 9.62745 -1.04006 22.3005 -2.24947 -11.6142 61.8302 -43.2915 45.562 -32.3349 8.3092 147.464 17.6589 3.14003 -44.5904 22.7445 -7.2301 -8.40115 -14.9745 28.8957 9.06947 -8.35988 22.2154 2.02566 42.4546 -53.136 27.3997 
